<?xml version="1.0" standalone="no"?>
<!DOCTYPE svg PUBLIC "-//W3C//DTD SVG 20010904//EN"
 "http://www.w3.org/TR/2001/REC-SVG-20010904/DTD/svg10.dtd">
<svg version="1.0" xmlns="http://www.w3.org/2000/svg"
 width="350.000000pt" height="318.000000pt" viewBox="0 0 350.000000 318.000000"
 preserveAspectRatio="xMidYMid meet">
<metadata>
Created by potrace 1.16, written by Peter Selinger 2001-2019
</metadata>
<g transform="translate(0.000000,318.000000) scale(0.100000,-0.100000)"
fill="#000000" stroke="none">
<path d="M1545 2943 c-362 -47 -716 -255 -929 -545 -165 -225 -266 -522 -266
-781 0 -88 2 -87 -123 -87 -63 0 -81 -4 -97 -20 -47 -47 -36 -86 57 -191 32
-36 132 -150 223 -255 167 -192 180 -205 192 -201 17 5 461 525 474 554 17 38
3 87 -30 105 -12 7 -57 11 -109 9 -130 -3 -127 -5 -127 92 1 160 57 336 153
476 46 68 155 179 223 227 80 57 213 119 311 145 113 31 317 31 430 1 139 -37
272 -106 366 -189 20 -18 41 -33 45 -33 9 0 280 313 288 333 5 14 -79 86 -186
157 -76 52 -257 133 -355 161 -114 32 -252 49 -385 47 -69 0 -138 -3 -155 -5z"/>
<path d="M2653 1998 c-351 -402 -334 -378 -308 -428 22 -43 43 -50 158 -50 57
0 106 -2 109 -5 8 -8 -11 -112 -33 -190 -89 -302 -353 -548 -664 -621 -112
-26 -320 -24 -425 4 -86 23 -201 74 -279 125 -30 19 -59 33 -65 30 -22 -10
-284 -326 -280 -337 9 -24 191 -137 289 -180 192 -84 344 -116 554 -116 164 0
292 19 428 65 332 111 593 328 775 645 72 124 139 341 154 493 4 39 12 75 18
79 6 4 51 8 99 8 80 0 90 2 112 25 17 16 25 35 25 58 0 30 -28 66 -241 311
-133 152 -245 276 -250 276 -4 0 -84 -87 -176 -192z"/>
</g>
</svg>
